<mxfile host="app.diagrams.net" modified="2024-03-15T16:15:41.897Z" agent="Mozilla/5.0 (Windows NT 10.0; Win64; x64) AppleWebKit/537.36 (KHTML, like Gecko) Chrome/122.0.0.0 Safari/537.36" etag="Ifu2T9-zwaIgpXtIs8oe" version="24.0.6" type="github">
  <diagram name="第 1 页" id="hqMSWx05icb2TXo64RTx">
    <mxGraphModel dx="1500" dy="1976" grid="1" gridSize="10" guides="1" tooltips="1" connect="1" arrows="0" fold="1" page="1" pageScale="1" pageWidth="827" pageHeight="1169" math="0" shadow="0">
      <root>
        <mxCell id="0" />
        <mxCell id="1" parent="0" />
        <mxCell id="2sswuefIibHv89pwSq-W-1" value="" style="ellipse;whiteSpace=wrap;html=1;aspect=fixed;fillColor=#33FF33;" vertex="1" parent="1">
          <mxGeometry x="240" y="40" width="40" height="40" as="geometry" />
        </mxCell>
        <mxCell id="2sswuefIibHv89pwSq-W-7" value="" style="ellipse;whiteSpace=wrap;html=1;aspect=fixed;fillColor=#33FF33;" vertex="1" parent="1">
          <mxGeometry x="190" y="90" width="40" height="40" as="geometry" />
        </mxCell>
        <mxCell id="2sswuefIibHv89pwSq-W-8" value="" style="ellipse;whiteSpace=wrap;html=1;aspect=fixed;fillColor=#FF9933;" vertex="1" parent="1">
          <mxGeometry x="290" y="90" width="40" height="40" as="geometry" />
        </mxCell>
        <mxCell id="2sswuefIibHv89pwSq-W-9" value="" style="ellipse;whiteSpace=wrap;html=1;aspect=fixed;fillColor=#33FF33;" vertex="1" parent="1">
          <mxGeometry x="150" y="135" width="40" height="40" as="geometry" />
        </mxCell>
        <mxCell id="2sswuefIibHv89pwSq-W-10" value="" style="ellipse;whiteSpace=wrap;html=1;aspect=fixed;fillColor=#FF9933;" vertex="1" parent="1">
          <mxGeometry x="330" y="135" width="40" height="40" as="geometry" />
        </mxCell>
        <mxCell id="2sswuefIibHv89pwSq-W-11" value="" style="endArrow=none;html=1;rounded=0;entryX=0;entryY=1;entryDx=0;entryDy=0;exitX=1;exitY=0;exitDx=0;exitDy=0;" edge="1" parent="1" source="2sswuefIibHv89pwSq-W-7" target="2sswuefIibHv89pwSq-W-1">
          <mxGeometry width="50" height="50" relative="1" as="geometry">
            <mxPoint x="80" y="270" as="sourcePoint" />
            <mxPoint x="130" y="220" as="targetPoint" />
          </mxGeometry>
        </mxCell>
        <mxCell id="2sswuefIibHv89pwSq-W-12" value="" style="endArrow=none;html=1;rounded=0;entryX=1;entryY=0;entryDx=0;entryDy=0;exitX=0;exitY=1;exitDx=0;exitDy=0;" edge="1" parent="1" source="2sswuefIibHv89pwSq-W-7" target="2sswuefIibHv89pwSq-W-9">
          <mxGeometry width="50" height="50" relative="1" as="geometry">
            <mxPoint x="244" y="96" as="sourcePoint" />
            <mxPoint x="256" y="84" as="targetPoint" />
          </mxGeometry>
        </mxCell>
        <mxCell id="2sswuefIibHv89pwSq-W-13" value="" style="endArrow=none;html=1;rounded=0;entryX=1;entryY=1;entryDx=0;entryDy=0;" edge="1" parent="1" source="2sswuefIibHv89pwSq-W-8" target="2sswuefIibHv89pwSq-W-1">
          <mxGeometry width="50" height="50" relative="1" as="geometry">
            <mxPoint x="244" y="96" as="sourcePoint" />
            <mxPoint x="256" y="84" as="targetPoint" />
          </mxGeometry>
        </mxCell>
        <mxCell id="2sswuefIibHv89pwSq-W-14" value="" style="endArrow=none;html=1;rounded=0;entryX=1;entryY=1;entryDx=0;entryDy=0;" edge="1" parent="1" source="2sswuefIibHv89pwSq-W-10" target="2sswuefIibHv89pwSq-W-8">
          <mxGeometry width="50" height="50" relative="1" as="geometry">
            <mxPoint x="296" y="96" as="sourcePoint" />
            <mxPoint x="284" y="84" as="targetPoint" />
          </mxGeometry>
        </mxCell>
        <mxCell id="2sswuefIibHv89pwSq-W-33" value="" style="rounded=0;whiteSpace=wrap;html=1;fillColor=#B3B3B3;" vertex="1" parent="1">
          <mxGeometry x="720" y="80" width="30" height="30" as="geometry" />
        </mxCell>
        <mxCell id="2sswuefIibHv89pwSq-W-34" value="" style="rounded=0;whiteSpace=wrap;html=1;fillColor=#B3B3B3;" vertex="1" parent="1">
          <mxGeometry x="770" y="80" width="30" height="30" as="geometry" />
        </mxCell>
        <mxCell id="2sswuefIibHv89pwSq-W-35" value="" style="rounded=0;whiteSpace=wrap;html=1;fillColor=#B3B3B3;" vertex="1" parent="1">
          <mxGeometry x="820" y="80" width="30" height="30" as="geometry" />
        </mxCell>
        <mxCell id="2sswuefIibHv89pwSq-W-88" style="edgeStyle=none;rounded=0;orthogonalLoop=1;jettySize=auto;html=1;exitX=1;exitY=1;exitDx=0;exitDy=0;entryX=0.35;entryY=-0.02;entryDx=0;entryDy=0;entryPerimeter=0;" edge="1" parent="1" source="2sswuefIibHv89pwSq-W-36" target="2sswuefIibHv89pwSq-W-74">
          <mxGeometry relative="1" as="geometry" />
        </mxCell>
        <mxCell id="2sswuefIibHv89pwSq-W-36" value="&lt;font style=&quot;font-size: 20px;&quot; face=&quot;Times New Roman&quot;&gt;DataSet&lt;/font&gt;" style="rounded=0;whiteSpace=wrap;html=1;" vertex="1" parent="1">
          <mxGeometry x="620" y="-80" width="120" height="40" as="geometry" />
        </mxCell>
        <mxCell id="2sswuefIibHv89pwSq-W-37" value="" style="ellipse;whiteSpace=wrap;html=1;aspect=fixed;fillColor=#FF9933;" vertex="1" parent="1">
          <mxGeometry x="240" y="90" width="40" height="40" as="geometry" />
        </mxCell>
        <mxCell id="2sswuefIibHv89pwSq-W-39" value="" style="endArrow=none;html=1;rounded=0;exitX=0.5;exitY=1;exitDx=0;exitDy=0;" edge="1" parent="1" source="2sswuefIibHv89pwSq-W-1" target="2sswuefIibHv89pwSq-W-37">
          <mxGeometry width="50" height="50" relative="1" as="geometry">
            <mxPoint x="176" y="164" as="sourcePoint" />
            <mxPoint x="124" y="216" as="targetPoint" />
          </mxGeometry>
        </mxCell>
        <mxCell id="2sswuefIibHv89pwSq-W-63" value="" style="ellipse;whiteSpace=wrap;html=1;aspect=fixed;fillColor=#33FF33;" vertex="1" parent="1">
          <mxGeometry x="530" y="40" width="40" height="40" as="geometry" />
        </mxCell>
        <mxCell id="2sswuefIibHv89pwSq-W-64" value="" style="ellipse;whiteSpace=wrap;html=1;aspect=fixed;fillColor=#FF9933;" vertex="1" parent="1">
          <mxGeometry x="480" y="90" width="40" height="40" as="geometry" />
        </mxCell>
        <mxCell id="2sswuefIibHv89pwSq-W-65" value="" style="ellipse;whiteSpace=wrap;html=1;aspect=fixed;fillColor=#FF9933;" vertex="1" parent="1">
          <mxGeometry x="580" y="90" width="40" height="40" as="geometry" />
        </mxCell>
        <mxCell id="2sswuefIibHv89pwSq-W-66" value="" style="ellipse;whiteSpace=wrap;html=1;aspect=fixed;fillColor=#FF9933;" vertex="1" parent="1">
          <mxGeometry x="440" y="135" width="40" height="40" as="geometry" />
        </mxCell>
        <mxCell id="2sswuefIibHv89pwSq-W-67" value="" style="ellipse;whiteSpace=wrap;html=1;aspect=fixed;fillColor=#FF9933;" vertex="1" parent="1">
          <mxGeometry x="620" y="135" width="40" height="40" as="geometry" />
        </mxCell>
        <mxCell id="2sswuefIibHv89pwSq-W-68" value="" style="endArrow=none;html=1;rounded=0;entryX=0;entryY=1;entryDx=0;entryDy=0;exitX=1;exitY=0;exitDx=0;exitDy=0;" edge="1" parent="1" source="2sswuefIibHv89pwSq-W-64" target="2sswuefIibHv89pwSq-W-63">
          <mxGeometry width="50" height="50" relative="1" as="geometry">
            <mxPoint x="370" y="270" as="sourcePoint" />
            <mxPoint x="420" y="220" as="targetPoint" />
          </mxGeometry>
        </mxCell>
        <mxCell id="2sswuefIibHv89pwSq-W-69" value="" style="endArrow=none;html=1;rounded=0;entryX=1;entryY=0;entryDx=0;entryDy=0;exitX=0;exitY=1;exitDx=0;exitDy=0;" edge="1" parent="1" source="2sswuefIibHv89pwSq-W-64" target="2sswuefIibHv89pwSq-W-66">
          <mxGeometry width="50" height="50" relative="1" as="geometry">
            <mxPoint x="534" y="96" as="sourcePoint" />
            <mxPoint x="546" y="84" as="targetPoint" />
          </mxGeometry>
        </mxCell>
        <mxCell id="2sswuefIibHv89pwSq-W-70" value="" style="endArrow=none;html=1;rounded=0;entryX=1;entryY=1;entryDx=0;entryDy=0;" edge="1" parent="1" source="2sswuefIibHv89pwSq-W-65" target="2sswuefIibHv89pwSq-W-63">
          <mxGeometry width="50" height="50" relative="1" as="geometry">
            <mxPoint x="534" y="96" as="sourcePoint" />
            <mxPoint x="546" y="84" as="targetPoint" />
          </mxGeometry>
        </mxCell>
        <mxCell id="2sswuefIibHv89pwSq-W-71" value="" style="endArrow=none;html=1;rounded=0;entryX=1;entryY=1;entryDx=0;entryDy=0;" edge="1" parent="1" source="2sswuefIibHv89pwSq-W-67" target="2sswuefIibHv89pwSq-W-65">
          <mxGeometry width="50" height="50" relative="1" as="geometry">
            <mxPoint x="586" y="96" as="sourcePoint" />
            <mxPoint x="574" y="84" as="targetPoint" />
          </mxGeometry>
        </mxCell>
        <mxCell id="2sswuefIibHv89pwSq-W-72" value="" style="ellipse;whiteSpace=wrap;html=1;aspect=fixed;fillColor=#33FF33;" vertex="1" parent="1">
          <mxGeometry x="530" y="90" width="40" height="40" as="geometry" />
        </mxCell>
        <mxCell id="2sswuefIibHv89pwSq-W-73" value="" style="endArrow=none;html=1;rounded=0;exitX=0.5;exitY=1;exitDx=0;exitDy=0;" edge="1" parent="1" source="2sswuefIibHv89pwSq-W-63" target="2sswuefIibHv89pwSq-W-72">
          <mxGeometry width="50" height="50" relative="1" as="geometry">
            <mxPoint x="466" y="164" as="sourcePoint" />
            <mxPoint x="414" y="216" as="targetPoint" />
          </mxGeometry>
        </mxCell>
        <mxCell id="2sswuefIibHv89pwSq-W-74" value="" style="ellipse;whiteSpace=wrap;html=1;aspect=fixed;fillColor=#33FF33;" vertex="1" parent="1">
          <mxGeometry x="980" y="40" width="40" height="40" as="geometry" />
        </mxCell>
        <mxCell id="2sswuefIibHv89pwSq-W-75" value="" style="ellipse;whiteSpace=wrap;html=1;aspect=fixed;fillColor=#FF9933;" vertex="1" parent="1">
          <mxGeometry x="930" y="90" width="40" height="40" as="geometry" />
        </mxCell>
        <mxCell id="2sswuefIibHv89pwSq-W-76" value="" style="ellipse;whiteSpace=wrap;html=1;aspect=fixed;fillColor=#33FF33;" vertex="1" parent="1">
          <mxGeometry x="1030" y="90" width="40" height="40" as="geometry" />
        </mxCell>
        <mxCell id="2sswuefIibHv89pwSq-W-77" value="" style="ellipse;whiteSpace=wrap;html=1;aspect=fixed;fillColor=#FF9933;" vertex="1" parent="1">
          <mxGeometry x="890" y="135" width="40" height="40" as="geometry" />
        </mxCell>
        <mxCell id="2sswuefIibHv89pwSq-W-78" value="" style="ellipse;whiteSpace=wrap;html=1;aspect=fixed;fillColor=#33FF33;" vertex="1" parent="1">
          <mxGeometry x="1070" y="135" width="40" height="40" as="geometry" />
        </mxCell>
        <mxCell id="2sswuefIibHv89pwSq-W-79" value="" style="endArrow=none;html=1;rounded=0;entryX=0;entryY=1;entryDx=0;entryDy=0;exitX=1;exitY=0;exitDx=0;exitDy=0;" edge="1" parent="1" source="2sswuefIibHv89pwSq-W-75" target="2sswuefIibHv89pwSq-W-74">
          <mxGeometry width="50" height="50" relative="1" as="geometry">
            <mxPoint x="820" y="270" as="sourcePoint" />
            <mxPoint x="870" y="220" as="targetPoint" />
          </mxGeometry>
        </mxCell>
        <mxCell id="2sswuefIibHv89pwSq-W-80" value="" style="endArrow=none;html=1;rounded=0;entryX=1;entryY=0;entryDx=0;entryDy=0;exitX=0;exitY=1;exitDx=0;exitDy=0;" edge="1" parent="1" source="2sswuefIibHv89pwSq-W-75" target="2sswuefIibHv89pwSq-W-77">
          <mxGeometry width="50" height="50" relative="1" as="geometry">
            <mxPoint x="984" y="96" as="sourcePoint" />
            <mxPoint x="996" y="84" as="targetPoint" />
          </mxGeometry>
        </mxCell>
        <mxCell id="2sswuefIibHv89pwSq-W-81" value="" style="endArrow=none;html=1;rounded=0;entryX=1;entryY=1;entryDx=0;entryDy=0;" edge="1" parent="1" source="2sswuefIibHv89pwSq-W-76" target="2sswuefIibHv89pwSq-W-74">
          <mxGeometry width="50" height="50" relative="1" as="geometry">
            <mxPoint x="984" y="96" as="sourcePoint" />
            <mxPoint x="996" y="84" as="targetPoint" />
          </mxGeometry>
        </mxCell>
        <mxCell id="2sswuefIibHv89pwSq-W-82" value="" style="endArrow=none;html=1;rounded=0;entryX=1;entryY=1;entryDx=0;entryDy=0;" edge="1" parent="1" source="2sswuefIibHv89pwSq-W-78" target="2sswuefIibHv89pwSq-W-76">
          <mxGeometry width="50" height="50" relative="1" as="geometry">
            <mxPoint x="1036" y="96" as="sourcePoint" />
            <mxPoint x="1024" y="84" as="targetPoint" />
          </mxGeometry>
        </mxCell>
        <mxCell id="2sswuefIibHv89pwSq-W-83" value="" style="ellipse;whiteSpace=wrap;html=1;aspect=fixed;fillColor=#FF9933;" vertex="1" parent="1">
          <mxGeometry x="980" y="90" width="40" height="40" as="geometry" />
        </mxCell>
        <mxCell id="2sswuefIibHv89pwSq-W-84" value="" style="endArrow=none;html=1;rounded=0;exitX=0.5;exitY=1;exitDx=0;exitDy=0;" edge="1" parent="1" source="2sswuefIibHv89pwSq-W-74" target="2sswuefIibHv89pwSq-W-83">
          <mxGeometry width="50" height="50" relative="1" as="geometry">
            <mxPoint x="916" y="164" as="sourcePoint" />
            <mxPoint x="864" y="216" as="targetPoint" />
          </mxGeometry>
        </mxCell>
        <mxCell id="2sswuefIibHv89pwSq-W-86" style="edgeStyle=none;rounded=0;orthogonalLoop=1;jettySize=auto;html=1;entryX=1;entryY=0;entryDx=0;entryDy=0;" edge="1" parent="1" source="2sswuefIibHv89pwSq-W-36" target="2sswuefIibHv89pwSq-W-1">
          <mxGeometry relative="1" as="geometry">
            <mxPoint x="279" y="55" as="targetPoint" />
          </mxGeometry>
        </mxCell>
        <mxCell id="2sswuefIibHv89pwSq-W-87" style="edgeStyle=none;rounded=0;orthogonalLoop=1;jettySize=auto;html=1;exitX=0.5;exitY=1;exitDx=0;exitDy=0;entryX=0.5;entryY=0;entryDx=0;entryDy=0;" edge="1" parent="1" source="2sswuefIibHv89pwSq-W-36" target="2sswuefIibHv89pwSq-W-63">
          <mxGeometry relative="1" as="geometry" />
        </mxCell>
        <mxCell id="2sswuefIibHv89pwSq-W-89" value="" style="ellipse;whiteSpace=wrap;html=1;aspect=fixed;fillColor=#FF9933;" vertex="1" parent="1">
          <mxGeometry x="550" y="135" width="40" height="40" as="geometry" />
        </mxCell>
        <mxCell id="2sswuefIibHv89pwSq-W-101" style="edgeStyle=none;rounded=0;orthogonalLoop=1;jettySize=auto;html=1;exitX=0.5;exitY=1;exitDx=0;exitDy=0;entryX=0.5;entryY=0;entryDx=0;entryDy=0;" edge="1" parent="1" source="2sswuefIibHv89pwSq-W-91" target="2sswuefIibHv89pwSq-W-97">
          <mxGeometry relative="1" as="geometry" />
        </mxCell>
        <mxCell id="2sswuefIibHv89pwSq-W-91" value="" style="ellipse;whiteSpace=wrap;html=1;aspect=fixed;fillColor=#FF9933;" vertex="1" parent="1">
          <mxGeometry x="270" y="135" width="40" height="40" as="geometry" />
        </mxCell>
        <mxCell id="2sswuefIibHv89pwSq-W-93" value="" style="endArrow=none;html=1;rounded=0;entryX=0.5;entryY=0;entryDx=0;entryDy=0;exitX=0;exitY=1;exitDx=0;exitDy=0;" edge="1" parent="1" source="2sswuefIibHv89pwSq-W-8" target="2sswuefIibHv89pwSq-W-91">
          <mxGeometry width="50" height="50" relative="1" as="geometry">
            <mxPoint x="310" y="130" as="sourcePoint" />
            <mxPoint x="610" y="160" as="targetPoint" />
          </mxGeometry>
        </mxCell>
        <mxCell id="2sswuefIibHv89pwSq-W-94" value="" style="ellipse;whiteSpace=wrap;html=1;aspect=fixed;fillColor=#FF9933;" vertex="1" parent="1">
          <mxGeometry x="1000" y="135" width="40" height="40" as="geometry" />
        </mxCell>
        <mxCell id="2sswuefIibHv89pwSq-W-95" value="" style="endArrow=none;html=1;rounded=0;entryX=0;entryY=1;entryDx=0;entryDy=0;exitX=0.5;exitY=0;exitDx=0;exitDy=0;" edge="1" parent="1" source="2sswuefIibHv89pwSq-W-89" target="2sswuefIibHv89pwSq-W-65">
          <mxGeometry width="50" height="50" relative="1" as="geometry">
            <mxPoint x="520" y="280" as="sourcePoint" />
            <mxPoint x="570" y="230" as="targetPoint" />
          </mxGeometry>
        </mxCell>
        <mxCell id="2sswuefIibHv89pwSq-W-96" value="" style="endArrow=none;html=1;rounded=0;entryX=0;entryY=1;entryDx=0;entryDy=0;exitX=0.5;exitY=0;exitDx=0;exitDy=0;" edge="1" parent="1" source="2sswuefIibHv89pwSq-W-94" target="2sswuefIibHv89pwSq-W-76">
          <mxGeometry width="50" height="50" relative="1" as="geometry">
            <mxPoint x="580" y="145" as="sourcePoint" />
            <mxPoint x="596" y="134" as="targetPoint" />
          </mxGeometry>
        </mxCell>
        <mxCell id="2sswuefIibHv89pwSq-W-97" value="&lt;font style=&quot;font-size: 18px;&quot; face=&quot;Times New Roman&quot;&gt;Decision Tree-1&lt;/font&gt;" style="text;strokeColor=none;align=center;fillColor=none;html=1;verticalAlign=middle;whiteSpace=wrap;rounded=0;" vertex="1" parent="1">
          <mxGeometry x="230" y="200" width="120" height="30" as="geometry" />
        </mxCell>
        <mxCell id="2sswuefIibHv89pwSq-W-98" value="&lt;font style=&quot;font-size: 18px;&quot; face=&quot;Times New Roman&quot;&gt;Decision Tree-2&lt;/font&gt;" style="text;strokeColor=none;align=center;fillColor=none;html=1;verticalAlign=middle;whiteSpace=wrap;rounded=0;" vertex="1" parent="1">
          <mxGeometry x="510" y="200" width="120" height="30" as="geometry" />
        </mxCell>
        <mxCell id="2sswuefIibHv89pwSq-W-99" style="edgeStyle=none;rounded=0;orthogonalLoop=1;jettySize=auto;html=1;exitX=0.75;exitY=1;exitDx=0;exitDy=0;" edge="1" parent="1" source="2sswuefIibHv89pwSq-W-98" target="2sswuefIibHv89pwSq-W-98">
          <mxGeometry relative="1" as="geometry" />
        </mxCell>
        <mxCell id="2sswuefIibHv89pwSq-W-109" style="edgeStyle=none;rounded=0;orthogonalLoop=1;jettySize=auto;html=1;exitX=0.5;exitY=1;exitDx=0;exitDy=0;entryX=0.5;entryY=0;entryDx=0;entryDy=0;" edge="1" parent="1" source="2sswuefIibHv89pwSq-W-100" target="2sswuefIibHv89pwSq-W-106">
          <mxGeometry relative="1" as="geometry" />
        </mxCell>
        <mxCell id="2sswuefIibHv89pwSq-W-100" value="&lt;font style=&quot;font-size: 18px;&quot; face=&quot;Times New Roman&quot;&gt;Decision Tree-30&lt;/font&gt;" style="text;strokeColor=none;align=center;fillColor=none;html=1;verticalAlign=middle;whiteSpace=wrap;rounded=0;" vertex="1" parent="1">
          <mxGeometry x="955" y="200" width="130" height="30" as="geometry" />
        </mxCell>
        <mxCell id="2sswuefIibHv89pwSq-W-102" style="edgeStyle=none;rounded=0;orthogonalLoop=1;jettySize=auto;html=1;exitX=0.5;exitY=1;exitDx=0;exitDy=0;entryX=0.5;entryY=0;entryDx=0;entryDy=0;" edge="1" parent="1" source="2sswuefIibHv89pwSq-W-89" target="2sswuefIibHv89pwSq-W-98">
          <mxGeometry relative="1" as="geometry" />
        </mxCell>
        <mxCell id="2sswuefIibHv89pwSq-W-103" style="edgeStyle=none;rounded=0;orthogonalLoop=1;jettySize=auto;html=1;exitX=0.5;exitY=1;exitDx=0;exitDy=0;entryX=0.5;entryY=0;entryDx=0;entryDy=0;" edge="1" parent="1" source="2sswuefIibHv89pwSq-W-94" target="2sswuefIibHv89pwSq-W-100">
          <mxGeometry relative="1" as="geometry">
            <mxPoint x="1015" y="202" as="targetPoint" />
          </mxGeometry>
        </mxCell>
        <mxCell id="2sswuefIibHv89pwSq-W-111" style="edgeStyle=orthogonalEdgeStyle;rounded=0;orthogonalLoop=1;jettySize=auto;html=1;exitX=0.5;exitY=1;exitDx=0;exitDy=0;entryX=0;entryY=0.5;entryDx=0;entryDy=0;" edge="1" parent="1" source="2sswuefIibHv89pwSq-W-104" target="2sswuefIibHv89pwSq-W-110">
          <mxGeometry relative="1" as="geometry" />
        </mxCell>
        <mxCell id="2sswuefIibHv89pwSq-W-104" value="&lt;font style=&quot;font-size: 18px;&quot; face=&quot;Times New Roman&quot;&gt;Result-1&lt;/font&gt;" style="text;strokeColor=none;align=center;fillColor=none;html=1;verticalAlign=middle;whiteSpace=wrap;rounded=0;" vertex="1" parent="1">
          <mxGeometry x="240" y="260" width="120" height="30" as="geometry" />
        </mxCell>
        <mxCell id="2sswuefIibHv89pwSq-W-105" value="&lt;font style=&quot;font-size: 18px;&quot; face=&quot;Times New Roman&quot;&gt;Result-2&lt;/font&gt;" style="text;strokeColor=none;align=center;fillColor=none;html=1;verticalAlign=middle;whiteSpace=wrap;rounded=0;" vertex="1" parent="1">
          <mxGeometry x="520" y="260" width="120" height="30" as="geometry" />
        </mxCell>
        <mxCell id="2sswuefIibHv89pwSq-W-112" style="edgeStyle=orthogonalEdgeStyle;rounded=0;orthogonalLoop=1;jettySize=auto;html=1;exitX=0.5;exitY=1;exitDx=0;exitDy=0;entryX=1;entryY=0.5;entryDx=0;entryDy=0;" edge="1" parent="1" source="2sswuefIibHv89pwSq-W-106" target="2sswuefIibHv89pwSq-W-110">
          <mxGeometry relative="1" as="geometry" />
        </mxCell>
        <mxCell id="2sswuefIibHv89pwSq-W-106" value="&lt;font style=&quot;font-size: 18px;&quot; face=&quot;Times New Roman&quot;&gt;Result-30&lt;/font&gt;" style="text;strokeColor=none;align=center;fillColor=none;html=1;verticalAlign=middle;whiteSpace=wrap;rounded=0;" vertex="1" parent="1">
          <mxGeometry x="960" y="260" width="120" height="30" as="geometry" />
        </mxCell>
        <mxCell id="2sswuefIibHv89pwSq-W-107" style="edgeStyle=none;rounded=0;orthogonalLoop=1;jettySize=auto;html=1;exitX=0.5;exitY=1;exitDx=0;exitDy=0;" edge="1" parent="1" source="2sswuefIibHv89pwSq-W-97">
          <mxGeometry relative="1" as="geometry">
            <mxPoint x="290" y="260" as="targetPoint" />
          </mxGeometry>
        </mxCell>
        <mxCell id="2sswuefIibHv89pwSq-W-108" style="edgeStyle=none;rounded=0;orthogonalLoop=1;jettySize=auto;html=1;exitX=0.5;exitY=1;exitDx=0;exitDy=0;entryX=0.413;entryY=0.027;entryDx=0;entryDy=0;entryPerimeter=0;" edge="1" parent="1" source="2sswuefIibHv89pwSq-W-98" target="2sswuefIibHv89pwSq-W-105">
          <mxGeometry relative="1" as="geometry" />
        </mxCell>
        <mxCell id="2sswuefIibHv89pwSq-W-115" style="edgeStyle=orthogonalEdgeStyle;rounded=0;orthogonalLoop=1;jettySize=auto;html=1;exitX=0.5;exitY=1;exitDx=0;exitDy=0;entryX=0.5;entryY=0;entryDx=0;entryDy=0;" edge="1" parent="1" source="2sswuefIibHv89pwSq-W-110" target="2sswuefIibHv89pwSq-W-114">
          <mxGeometry relative="1" as="geometry" />
        </mxCell>
        <mxCell id="2sswuefIibHv89pwSq-W-110" value="&lt;font style=&quot;font-size: 18px;&quot; face=&quot;Times New Roman&quot;&gt;Majority Voting / Averaging&lt;/font&gt;" style="rounded=0;whiteSpace=wrap;html=1;" vertex="1" parent="1">
          <mxGeometry x="550" y="420" width="260" height="60" as="geometry" />
        </mxCell>
        <mxCell id="2sswuefIibHv89pwSq-W-113" style="edgeStyle=orthogonalEdgeStyle;rounded=0;orthogonalLoop=1;jettySize=auto;html=1;exitX=0.5;exitY=1;exitDx=0;exitDy=0;entryX=0.5;entryY=0;entryDx=0;entryDy=0;" edge="1" parent="1" source="2sswuefIibHv89pwSq-W-105" target="2sswuefIibHv89pwSq-W-110">
          <mxGeometry relative="1" as="geometry">
            <mxPoint x="700" y="410" as="targetPoint" />
          </mxGeometry>
        </mxCell>
        <mxCell id="2sswuefIibHv89pwSq-W-114" value="&lt;font style=&quot;font-size: 18px;&quot; face=&quot;Times New Roman&quot;&gt;Final Result&lt;/font&gt;" style="text;strokeColor=none;align=center;fillColor=none;html=1;verticalAlign=middle;whiteSpace=wrap;rounded=0;" vertex="1" parent="1">
          <mxGeometry x="620" y="554" width="120" height="30" as="geometry" />
        </mxCell>
      </root>
    </mxGraphModel>
  </diagram>
</mxfile>
